<svg width="56" height="56" viewBox="0 0 56 56" fill="none" xmlns="http://www.w3.org/2000/svg">
<path d="M19.1033 33.4682C19.1913 35.2432 18.6298 36.9895 17.5238 38.3806C16.4177 39.7717 14.8429 40.7123 13.0937 41.0266C11.3446 41.3409 9.54077 41.0074 8.01964 40.0884C6.49852 39.1694 5.36418 37.7278 4.82872 36.0332C4.29326 34.3386 4.39333 32.507 5.11022 30.8808C5.82712 29.2546 7.11176 27.9452 8.72395 27.1974C10.3362 26.4496 12.1655 26.3146 13.8701 26.8176C15.5746 27.3206 17.0375 28.4272 17.9854 29.9305" stroke="#FFD12F" stroke-width="2"/>
<path d="M16.8048 33.5821C16.8651 34.7986 16.4803 35.9953 15.7223 36.9486C14.9644 37.9019 13.8851 38.5465 12.6864 38.7619C11.4877 38.9773 10.2516 38.7488 9.20916 38.119C8.16672 37.4892 7.38935 36.5013 7.02239 35.3399C6.65544 34.1786 6.72403 32.9234 7.21532 31.809C7.70661 30.6945 8.58696 29.7972 9.69181 29.2847C10.7966 28.7722 12.0503 28.6797 13.2184 29.0244C14.3865 29.3691 15.3891 30.1275 16.0387 31.1577" stroke="#FFD12F"/>
<path d="M49.0138 32.6505C49.1688 33.29 49.1962 33.9538 49.0946 34.6039C48.993 35.2541 48.7643 35.8778 48.4217 36.4396C48.079 37.0013 47.6291 37.4901 47.0975 37.8779C46.5659 38.2658 45.9632 38.5452 45.3237 38.7001C44.6842 38.855 44.0204 38.8824 43.3703 38.7808C42.7201 38.6792 42.0964 38.4506 41.5347 38.1079C40.9729 37.7652 40.4841 37.3153 40.0963 36.7837C39.7084 36.2522 39.429 35.6494 39.2741 35.0099C39.1192 34.3704 39.0918 33.7066 39.1934 33.0565C39.295 32.4064 39.5236 31.7826 39.8663 31.2209C40.209 30.6591 40.6589 30.1704 41.1905 29.7825C41.722 29.3947 42.3248 29.1153 42.9643 28.9604C43.6038 28.8054 44.2676 28.778 44.9177 28.8796C45.5678 28.9812 46.1916 29.2099 46.7533 29.5525C47.3151 29.8952 47.8038 30.3452 48.1917 30.8767C48.5796 31.4083 48.8589 32.011 49.0138 32.6505Z" stroke="#FFD12F"/>
<path d="M44.1445 41.1419C48.1826 41.1419 51.4561 37.8683 51.4561 33.8302C51.4561 29.7921 48.1826 26.5186 44.1445 26.5186C40.1064 26.5186 36.8328 29.7921 36.8328 33.8302C36.8328 37.8683 40.1064 41.1419 44.1445 41.1419Z" stroke="#FFD12F" stroke-width="2"/>
<path d="M33.6586 14.7513L37.5048 15.3087L38.8213 18.9318M38.8213 18.9318L44.2494 33.8705M38.8213 18.9318C36.8588 19.0619 32.3764 19.4335 30.1468 19.8794C27.9171 20.3254 23.9781 21.849 22.2873 22.555L13.2572 18.9318C13.2572 18.9318 10.4988 19.1387 9.44716 19.7172C9.0222 20.0655 9.83567 20.4847 11.0276 21.2772C14.3535 23.4882 19.3664 26.5461 19.5002 26.6799C19.6675 26.8471 21.0052 28.2964 21.061 28.6866C21.1056 28.9987 20.5593 29.4112 20.2806 29.5784C17.3449 30.3774 11.3701 31.9219 11.0276 32.0311C10.5318 32.1891 9.742 33.0813 10.1356 34.3165C10.4259 35.2271 11.5292 35.4313 12.1424 35.3198C12.5948 35.2376 18.4858 33.7901 22.052 32.9096C22.5388 32.7894 23.0375 33.0486 23.2406 33.5071C23.9479 35.103 25.0558 37.2387 25.2973 37.5494C25.6969 38.0635 27.6739 38.7147 30.1468 38.3298C31.4184 38.1319 33.6586 36.7691 33.6586 35.3198C33.6586 34.5596 33.5665 33.3239 33.6641 32.0311M33.6641 32.0311C33.7524 30.8593 33.9966 29.6406 34.6061 28.6866M33.6641 32.0311H26.3006M34.6061 28.6866C35.8882 26.6799 37.2015 25.1565 38.8213 24.1715C40.013 23.4469 42.4097 22.4546 45.467 22.6192C47.0854 22.7064 48.6529 23.2425 49.1546 23.4469M34.6061 28.6866L28.586 28.3521" stroke="#FFD12F" stroke-width="2" stroke-linecap="round"/>
</svg>
