<svg width="56" height="57" viewBox="0 0 56 57" fill="none" xmlns="http://www.w3.org/2000/svg">
<path d="M6.33191 22.4861V20.3068C6.33191 18.6499 7.67505 17.3068 9.33191 17.3068H13.2781C14.9349 17.3068 16.2781 18.6499 16.2781 20.3068V22.4862C16.2781 24.143 14.9349 25.4862 13.2781 25.4862H9.33191C7.67505 25.4862 6.33191 24.143 6.33191 22.4861Z" stroke="#FFD12F" stroke-width="1.5"/>
<path d="M20.3283 22.4861V20.3068C20.3283 18.6499 21.6715 17.3068 23.3283 17.3068H27.2745C28.9313 17.3068 30.2745 18.6499 30.2745 20.3068V22.4862C30.2745 24.143 28.9313 25.4862 27.2745 25.4862H23.3283C21.6715 25.4862 20.3283 24.143 20.3283 22.4861Z" stroke="#FFD12F" stroke-width="1.5"/>
<path d="M40.6263 17.1524H36.1202C35.0156 17.1524 34.1202 18.0479 34.1202 19.1524V23.126C34.1202 24.2306 35.0156 25.126 36.1202 25.126H48.373M46.4999 38.5C50.4999 38.5 52.9999 37 53.0384 34.8487C53.058 33.7592 53.141 29.1386 52.6796 28.0068C52.3104 27.1014 49.9623 26.0177 48.8344 25.589C45.3823 22.0738 38.8267 15.3519 38.3755 14.7346C37.9653 14.1734 36.6836 13.5 35.3507 13.5C35.3507 13.5 7.81923 13.5 7.20404 13.5C5.66594 13.5 3.00001 15.4034 2.99994 17.7183C2.99987 20.0332 2.99987 32.8206 2.99989 34.1285C2.99994 36.3594 5.30705 38.4497 7.20404 38.4497H9.99994M37.9999 38.4497H17.9999" stroke="#FFD12F" stroke-width="1.5"/>
<path d="M18.2976 38.9642C18.2976 41.3082 16.4045 43.2041 14.0745 43.2041C11.7446 43.2041 9.85144 41.3082 9.85144 38.9642C9.85144 36.6201 11.7446 34.7242 14.0745 34.7242C16.4045 34.7242 18.2976 36.6201 18.2976 38.9642Z" stroke="#FFD12F" stroke-width="1.5"/>
<path d="M46.5974 38.9641C46.5974 41.3082 44.7043 43.2041 42.3743 43.2041C40.0444 43.2041 38.1512 41.3082 38.1512 38.9641C38.1512 36.6201 40.0444 34.7242 42.3743 34.7242C44.7043 34.7242 46.5974 36.6201 46.5974 38.9641Z" stroke="#FFD12F" stroke-width="1.5"/>
</svg>
