<svg width="56" height="57" viewBox="0 0 56 57" fill="none" xmlns="http://www.w3.org/2000/svg">
<path d="M11.4691 44.923C13.6908 44.923 15.4919 43.1219 15.4919 40.9002C15.4919 38.6785 13.6908 36.8774 11.4691 36.8774C9.24736 36.8774 7.44629 38.6785 7.44629 40.9002C7.44629 43.1219 9.24736 44.923 11.4691 44.923Z" stroke="#FFD12F" stroke-width="1.5"/>
<path d="M44.7823 44.9231C47.004 44.9231 48.8051 43.122 48.8051 40.9003C48.8051 38.6786 47.004 36.8775 44.7823 36.8775C42.5606 36.8775 40.7595 38.6786 40.7595 40.9003C40.7595 43.122 42.5606 44.9231 44.7823 44.9231Z" stroke="#FFD12F" stroke-width="1.5"/>
<path d="M54.1914 39.7354L54.8622 40.0708L54.9409 39.9135L54.9414 39.7376L54.1914 39.7354ZM29.5517 35.1988H28.8017V35.2609L28.8119 35.3221L29.5517 35.1988ZM44.501 32.2525C44.0868 32.2525 43.751 32.5883 43.751 33.0025C43.751 33.4167 44.0868 33.7525 44.501 33.7525V32.2525ZM46.6727 33.7525C47.0869 33.7525 47.4227 33.4167 47.4227 33.0025C47.4227 32.5883 47.0869 32.2525 46.6727 32.2525V33.7525ZM41.355 40.1182H15.4729V41.6182H41.355V40.1182ZM7.52884 40.1182C7.52743 40.1182 7.526 40.1182 7.52458 40.1182C7.52315 40.1182 7.52173 40.1182 7.52029 40.1182C7.51886 40.1182 7.51743 40.1182 7.51599 40.1182C7.51455 40.1182 7.51311 40.1182 7.51166 40.1182C7.51021 40.1182 7.50876 40.1182 7.50731 40.1182C7.50586 40.1182 7.5044 40.1182 7.50294 40.1182C7.50148 40.1182 7.50002 40.1182 7.49855 40.1182C7.49709 40.1182 7.49562 40.1182 7.49414 40.1182C7.49267 40.1182 7.49119 40.1182 7.48971 40.1182C7.48823 40.1182 7.48675 40.1182 7.48526 40.1182C7.48378 40.1182 7.48229 40.1182 7.48079 40.1182C7.4793 40.1182 7.4778 40.1182 7.4763 40.1182C7.4748 40.1182 7.4733 40.1182 7.47179 40.1182C7.47028 40.1182 7.46877 40.1182 7.46726 40.1182C7.46575 40.1182 7.46423 40.1182 7.46271 40.1182C7.46119 40.1182 7.45967 40.1182 7.45814 40.1182C7.45661 40.1182 7.45508 40.1182 7.45355 40.1182C7.45202 40.1182 7.45048 40.1182 7.44894 40.1182C7.4474 40.1182 7.44586 40.1182 7.44431 40.1182C7.44276 40.1182 7.44122 40.1182 7.43966 40.1182C7.43811 40.1182 7.43655 40.1182 7.43499 40.1182C7.43343 40.1182 7.43187 40.1182 7.43031 40.1182C7.42874 40.1182 7.42717 40.1182 7.4256 40.1182C7.42403 40.1182 7.42245 40.1182 7.42087 40.1182C7.41929 40.1182 7.41771 40.1182 7.41613 40.1182C7.41454 40.1182 7.41296 40.1182 7.41136 40.1182C7.40977 40.1182 7.40818 40.1182 7.40658 40.1182C7.40498 40.1182 7.40338 40.1182 7.40178 40.1182C7.40018 40.1182 7.39857 40.1182 7.39696 40.1182C7.39535 40.1182 7.39374 40.1182 7.39212 40.1182C7.3905 40.1182 7.38888 40.1182 7.38726 40.1182C7.38564 40.1182 7.38401 40.1182 7.38238 40.1182C7.38076 40.1182 7.37912 40.1182 7.37749 40.1182C7.37585 40.1182 7.37422 40.1182 7.37258 40.1182C7.37094 40.1182 7.36929 40.1182 7.36764 40.1182C7.366 40.1182 7.36435 40.1182 7.36269 40.1182C7.36104 40.1182 7.35939 40.1182 7.35773 40.1182C7.35607 40.1182 7.35441 40.1182 7.35274 40.1182C7.35108 40.1182 7.34941 40.1182 7.34774 40.1182C7.34607 40.1182 7.34439 40.1182 7.34271 40.1182C7.34104 40.1182 7.33936 40.1182 7.33768 40.1182C7.33599 40.1182 7.33431 40.1182 7.33262 40.1182C7.33093 40.1182 7.32924 40.1182 7.32754 40.1182C7.32585 40.1182 7.32415 40.1182 7.32245 40.1182C7.32075 40.1182 7.31905 40.1182 7.31734 40.1182C7.31563 40.1182 7.31392 40.1182 7.31221 40.1182C7.3105 40.1182 7.30878 40.1182 7.30707 40.1182C7.30535 40.1182 7.30363 40.1182 7.30191 40.1182C7.30018 40.1182 7.29845 40.1182 7.29673 40.1182C7.295 40.1182 7.29326 40.1182 7.29153 40.1182C7.28979 40.1182 7.28806 40.1182 7.28632 40.1182C7.28458 40.1182 7.28283 40.1182 7.28109 40.1182C7.27934 40.1182 7.27759 40.1182 7.27584 40.1182C7.27409 40.1182 7.27233 40.1182 7.27057 40.1182C7.26882 40.1182 7.26706 40.1182 7.26529 40.1182C7.26353 40.1182 7.26177 40.1182 7.26 40.1182C7.25823 40.1182 7.25646 40.1182 7.25468 40.1182C7.25291 40.1182 7.25113 40.1182 7.24935 40.1182C7.24757 40.1182 7.24579 40.1182 7.24401 40.1182C7.24222 40.1182 7.24043 40.1182 7.23864 40.1182C7.23685 40.1182 7.23506 40.1182 7.23326 40.1182C7.23147 40.1182 7.22967 40.1182 7.22787 40.1182C7.22607 40.1182 7.22426 40.1182 7.22246 40.1182C7.22065 40.1182 7.21884 40.1182 7.21703 40.1182C7.21522 40.1182 7.2134 40.1182 7.21159 40.1182C7.20977 40.1182 7.20795 40.1182 7.20613 40.1182C7.20431 40.1182 7.20248 40.1182 7.20065 40.1182C7.19883 40.1182 7.197 40.1182 7.19516 40.1182C7.19333 40.1182 7.1915 40.1182 7.18966 40.1182C7.18782 40.1182 7.18598 40.1182 7.18414 40.1182C7.18229 40.1182 7.18045 40.1182 7.1786 40.1182C7.17675 40.1182 7.1749 40.1182 7.17305 40.1182C7.17119 40.1182 7.16934 40.1182 7.16748 40.1182C7.16562 40.1182 7.16376 40.1182 7.1619 40.1182C7.16003 40.1182 7.15817 40.1182 7.1563 40.1182C7.15443 40.1182 7.15256 40.1182 7.15069 40.1182C7.14881 40.1182 7.14694 40.1182 7.14506 40.1182C7.14318 40.1182 7.1413 40.1182 7.13942 40.1182C7.13754 40.1182 7.13565 40.1182 7.13376 40.1182C7.13187 40.1182 7.12998 40.1182 7.12809 40.1182C7.1262 40.1182 7.1243 40.1182 7.1224 40.1182C7.12051 40.1182 7.1186 40.1182 7.1167 40.1182C7.1148 40.1182 7.11289 40.1182 7.11099 40.1182C7.10908 40.1182 7.10717 40.1182 7.10526 40.1182C7.10334 40.1182 7.10143 40.1182 7.09951 40.1182C7.0976 40.1182 7.09568 40.1182 7.09376 40.1182C7.09183 40.1182 7.08991 40.1182 7.08798 40.1182C7.08606 40.1182 7.08413 40.1182 7.0822 40.1182C7.08027 40.1182 7.07833 40.1182 7.0764 40.1182C7.07446 40.1182 7.07252 40.1182 7.07058 40.1182C7.06864 40.1182 7.0667 40.1182 7.06475 40.1182C7.06281 40.1182 7.06086 40.1182 7.05891 40.1182C7.05696 40.1182 7.05501 40.1182 7.05306 40.1182C7.0511 40.1182 7.04915 40.1182 7.04719 40.1182C7.04523 40.1182 7.04327 40.1182 7.04131 40.1182C7.03934 40.1182 7.03738 40.1182 7.03541 40.1182C7.03344 40.1182 7.03147 40.1182 7.0295 40.1182C7.02753 40.1182 7.02556 40.1182 7.02358 40.1182C7.0216 40.1182 7.01962 40.1182 7.01764 40.1182C7.01566 40.1182 7.01368 40.1182 7.01169 40.1182C7.00971 40.1182 7.00772 40.1182 7.00573 40.1182C7.00374 40.1182 7.00175 40.1182 6.99976 40.1182C6.99777 40.1182 6.99577 40.1182 6.99377 40.1182C6.99177 40.1182 6.98977 40.1182 6.98777 40.1182C6.98577 40.1182 6.98377 40.1182 6.98176 40.1182C6.97975 40.1182 6.97774 40.1182 6.97573 40.1182C6.97372 40.1182 6.97171 40.1182 6.9697 40.1182C6.96768 40.1182 6.96566 40.1182 6.96364 40.1182C6.96163 40.1182 6.95961 40.1182 6.95758 40.1182C6.95556 40.1182 6.95353 40.1182 6.95151 40.1182C6.94948 40.1182 6.94745 40.1182 6.94542 40.1182C6.94339 40.1182 6.94136 40.1182 6.93932 40.1182C6.93729 40.1182 6.93525 40.1182 6.93321 40.1182C6.93117 40.1182 6.92913 40.1182 6.92709 40.1182C6.92504 40.1182 6.923 40.1182 6.92095 40.1182C6.9189 40.1182 6.91686 40.1182 6.9148 40.1182C6.91275 40.1182 6.9107 40.1182 6.90865 40.1182C6.90659 40.1182 6.90453 40.1182 6.90248 40.1182C6.90042 40.1182 6.89836 40.1182 6.89629 40.1182C6.89423 40.1182 6.89217 40.1182 6.8901 40.1182C6.88803 40.1182 6.88597 40.1182 6.8839 40.1182C6.88183 40.1182 6.87975 40.1182 6.87768 40.1182C6.87561 40.1182 6.87353 40.1182 6.87145 40.1182C6.86938 40.1182 6.8673 40.1182 6.86521 40.1182C6.86313 40.1182 6.86105 40.1182 6.85896 40.1182C6.85688 40.1182 6.85479 40.1182 6.8527 40.1182C6.85062 40.1182 6.84853 40.1182 6.84643 40.1182C6.84434 40.1182 6.84225 40.1182 6.84015 40.1182C6.83806 40.1182 6.83596 40.1182 6.83386 40.1182C6.83176 40.1182 6.82966 40.1182 6.82755 40.1182C6.82545 40.1182 6.82335 40.1182 6.82124 40.1182C6.81913 40.1182 6.81703 40.1182 6.81492 40.1182C6.81281 40.1182 6.81069 40.1182 6.80858 40.1182C6.80647 40.1182 6.80435 40.1182 6.80224 40.1182C6.80012 40.1182 6.798 40.1182 6.79588 40.1182C6.79376 40.1182 6.79164 40.1182 6.78951 40.1182C6.78739 40.1182 6.78526 40.1182 6.78314 40.1182C6.78101 40.1182 6.77888 40.1182 6.77675 40.1182C6.77462 40.1182 6.77249 40.1182 6.77035 40.1182C6.76822 40.1182 6.76609 40.1182 6.76395 40.1182C6.76181 40.1182 6.75967 40.1182 6.75753 40.1182C6.75539 40.1182 6.75325 40.1182 6.75111 40.1182C6.74896 40.1182 6.74682 40.1182 6.74467 40.1182C6.74253 40.1182 6.74038 40.1182 6.73823 40.1182C6.73608 40.1182 6.73393 40.1182 6.73177 40.1182C6.72962 40.1182 6.72747 40.1182 6.72531 40.1182C6.72315 40.1182 6.721 40.1182 6.71884 40.1182C6.71668 40.1182 6.71452 40.1182 6.71236 40.1182C6.71019 40.1182 6.70803 40.1182 6.70586 40.1182C6.7037 40.1182 6.70153 40.1182 6.69936 40.1182C6.6972 40.1182 6.69503 40.1182 6.69286 40.1182C6.69068 40.1182 6.68851 40.1182 6.68634 40.1182C6.68416 40.1182 6.68199 40.1182 6.67981 40.1182C6.67763 40.1182 6.67545 40.1182 6.67327 40.1182C6.67109 40.1182 6.66891 40.1182 6.66673 40.1182C6.66455 40.1182 6.66236 40.1182 6.66018 40.1182C6.65799 40.1182 6.6558 40.1182 6.65362 40.1182C6.65143 40.1182 6.64924 40.1182 6.64705 40.1182C6.64485 40.1182 6.64266 40.1182 6.64047 40.1182C6.63827 40.1182 6.63608 40.1182 6.63388 40.1182C6.63168 40.1182 6.62949 40.1182 6.62729 40.1182C6.62509 40.1182 6.62289 40.1182 6.62068 40.1182C6.61848 40.1182 6.61628 40.1182 6.61407 40.1182C6.61187 40.1182 6.60966 40.1182 6.60745 40.1182C6.60525 40.1182 6.60304 40.1182 6.60083 40.1182C6.59862 40.1182 6.59641 40.1182 6.59419 40.1182C6.59198 40.1182 6.58977 40.1182 6.58755 40.1182C6.58534 40.1182 6.58312 40.1182 6.5809 40.1182C6.57868 40.1182 6.57646 40.1182 6.57424 40.1182C6.57202 40.1182 6.5698 40.1182 6.56758 40.1182C6.56536 40.1182 6.56313 40.1182 6.56091 40.1182C6.55868 40.1182 6.55645 40.1182 6.55423 40.1182C6.552 40.1182 6.54977 40.1182 6.54754 40.1182C6.54531 40.1182 6.54308 40.1182 6.54085 40.1182C6.53861 40.1182 6.53638 40.1182 6.53415 40.1182C6.53191 40.1182 6.52968 40.1182 6.52744 40.1182C6.5252 40.1182 6.52296 40.1182 6.52072 40.1182C6.51848 40.1182 6.51624 40.1182 6.514 40.1182C6.51176 40.1182 6.50952 40.1182 6.50727 40.1182C6.50503 40.1182 6.50278 40.1182 6.50054 40.1182C6.49829 40.1182 6.49604 40.1182 6.4938 40.1182C6.49155 40.1182 6.4893 40.1182 6.48705 40.1182C6.4848 40.1182 6.48255 40.1182 6.48029 40.1182C6.47804 40.1182 6.47579 40.1182 6.47353 40.1182C6.47128 40.1182 6.46902 40.1182 6.46677 40.1182C6.46451 40.1182 6.46225 40.1182 6.45999 40.1182C6.45773 40.1182 6.45547 40.1182 6.45321 40.1182C6.45095 40.1182 6.44869 40.1182 6.44643 40.1182C6.44416 40.1182 6.4419 40.1182 6.43964 40.1182C6.43737 40.1182 6.43511 40.1182 6.43284 40.1182C6.43057 40.1182 6.4283 40.1182 6.42604 40.1182C6.42377 40.1182 6.4215 40.1182 6.41923 40.1182C6.41696 40.1182 6.41469 40.1182 6.41241 40.1182C6.41014 40.1182 6.40787 40.1182 6.40559 40.1182C6.40332 40.1182 6.40104 40.1182 6.39877 40.1182C6.39649 40.1182 6.39421 40.1182 6.39194 40.1182C6.38966 40.1182 6.38738 40.1182 6.3851 40.1182C6.38282 40.1182 6.38054 40.1182 6.37826 40.1182C6.37598 40.1182 6.3737 40.1182 6.37141 40.1182C6.36913 40.1182 6.36685 40.1182 6.36456 40.1182C6.36228 40.1182 6.35999 40.1182 6.35771 40.1182C6.35542 40.1182 6.35313 40.1182 6.35084 40.1182C6.34856 40.1182 6.34627 40.1182 6.34398 40.1182C6.34169 40.1182 6.3394 40.1182 6.33711 40.1182C6.33482 40.1182 6.33252 40.1182 6.33023 40.1182C6.32794 40.1182 6.32565 40.1182 6.32335 40.1182C6.32106 40.1182 6.31876 40.1182 6.31647 40.1182C6.31417 40.1182 6.31187 40.1182 6.30958 40.1182C6.30728 40.1182 6.30498 40.1182 6.30268 40.1182C6.30039 40.1182 6.29809 40.1182 6.29579 40.1182C6.29349 40.1182 6.29119 40.1182 6.28889 40.1182C6.28658 40.1182 6.28428 40.1182 6.28198 40.1182C6.27968 40.1182 6.27737 40.1182 6.27507 40.1182C6.27277 40.1182 6.27046 40.1182 6.26816 40.1182C6.26585 40.1182 6.26354 40.1182 6.26124 40.1182C6.25893 40.1182 6.25662 40.1182 6.25432 40.1182C6.25201 40.1182 6.2497 40.1182 6.24739 40.1182C6.24508 40.1182 6.24277 40.1182 6.24046 40.1182C6.23815 40.1182 6.23584 40.1182 6.23353 40.1182C6.23122 40.1182 6.22891 40.1182 6.22659 40.1182C6.22428 40.1182 6.22197 40.1182 6.21966 40.1182C6.21734 40.1182 6.21503 40.1182 6.21271 40.1182C6.2104 40.1182 6.20808 40.1182 6.20577 40.1182C6.20345 40.1182 6.20113 40.1182 6.19882 40.1182C6.1965 40.1182 6.19418 40.1182 6.19187 40.1182C6.18955 40.1182 6.18723 40.1182 6.18491 40.1182C6.18259 40.1182 6.18027 40.1182 6.17795 40.1182C6.17563 40.1182 6.17331 40.1182 6.17099 40.1182C6.16867 40.1182 6.16635 40.1182 6.16403 40.1182C6.16171 40.1182 6.15939 40.1182 6.15706 40.1182C6.15474 40.1182 6.15242 40.1182 6.15009 40.1182C6.14777 40.1182 6.14545 40.1182 6.14312 40.1182C6.1408 40.1182 6.13848 40.1182 6.13615 40.1182C6.13383 40.1182 6.1315 40.1182 6.12918 40.1182C6.12685 40.1182 6.12452 40.1182 6.1222 40.1182C6.11987 40.1182 6.11754 40.1182 6.11522 40.1182C6.11289 40.1182 6.11056 40.1182 6.10823 40.1182C6.10591 40.1182 6.10358 40.1182 6.10125 40.1182C6.09892 40.1182 6.09659 40.1182 6.09426 40.1182C6.09194 40.1182 6.08961 40.1182 6.08728 40.1182C6.08495 40.1182 6.08262 40.1182 6.08029 40.1182C6.07796 40.1182 6.07563 40.1182 6.07329 40.1182C6.07096 40.1182 6.06863 40.1182 6.0663 40.1182C6.06397 40.1182 6.06164 40.1182 6.05931 40.1182C6.05697 40.1182 6.05464 40.1182 6.05231 40.1182C6.04998 40.1182 6.04765 40.1182 6.04531 40.1182C6.04298 40.1182 6.04065 40.1182 6.03831 40.1182C6.03598 40.1182 6.03365 40.1182 6.03131 40.1182C6.02898 40.1182 6.02665 40.1182 6.02431 40.1182C6.02198 40.1182 6.01965 40.1182 6.01731 40.1182C6.01498 40.1182 6.01264 40.1182 6.01031 40.1182C6.00797 40.1182 6.00564 40.1182 6.0033 40.1182C6.00097 40.1182 5.99863 40.1182 5.9963 40.1182C5.99396 40.1182 5.99163 40.1182 5.98929 40.1182C5.98696 40.1182 5.98462 40.1182 5.98229 40.1182C5.97995 40.1182 5.97762 40.1182 5.97528 40.1182C5.97294 40.1182 5.97061 40.1182 5.96827 40.1182C5.96594 40.1182 5.9636 40.1182 5.96127 40.1182C5.95893 40.1182 5.95659 40.1182 5.95426 40.1182C5.95192 40.1182 5.94959 40.1182 5.94725 40.1182C5.94491 40.1182 5.94258 40.1182 5.94024 40.1182C5.9379 40.1182 5.93557 40.1182 5.93323 40.1182C5.9309 40.1182 5.92856 40.1182 5.92622 40.1182C5.92389 40.1182 5.92155 40.1182 5.91922 40.1182C5.91688 40.1182 5.91454 40.1182 5.91221 40.1182C5.90987 40.1182 5.90753 40.1182 5.9052 40.1182C5.90286 40.1182 5.90053 40.1182 5.89819 40.1182C5.89585 40.1182 5.89352 40.1182 5.89118 40.1182C5.88885 40.1182 5.88651 40.1182 5.88418 40.1182C5.88184 40.1182 5.87951 40.1182 5.87717 40.1182C5.87484 40.1182 5.8725 40.1182 5.87016 40.1182C5.86783 40.1182 5.86549 40.1182 5.86316 40.1182C5.86082 40.1182 5.85849 40.1182 5.85616 40.1182C5.85382 40.1182 5.85149 40.1182 5.84915 40.1182C5.84682 40.1182 5.84448 40.1182 5.84215 40.1182C5.83982 40.1182 5.83748 40.1182 5.83515 40.1182C5.83281 40.1182 5.83048 40.1182 5.82815 40.1182C5.82581 40.1182 5.82348 40.1182 5.82115 40.1182C5.81882 40.1182 5.81648 40.1182 5.81415 40.1182C5.81182 40.1182 5.80949 40.1182 5.80716 40.1182C5.80482 40.1182 5.80249 40.1182 5.80016 40.1182C5.79783 40.1182 5.7955 40.1182 5.79317 40.1182C5.79084 40.1182 5.78851 40.1182 5.78617 40.1182C5.78384 40.1182 5.78151 40.1182 5.77918 40.1182C5.77685 40.1182 5.77453 40.1182 5.7722 40.1182C5.76987 40.1182 5.76754 40.1182 5.76521 40.1182C5.76288 40.1182 5.76055 40.1182 5.75822 40.1182C5.7559 40.1182 5.75357 40.1182 5.75124 40.1182C5.74892 40.1182 5.74659 40.1182 5.74426 40.1182C5.74194 40.1182 5.73961 40.1182 5.73728 40.1182C5.73496 40.1182 5.73263 40.1182 5.73031 40.1182C5.72798 40.1182 5.72566 40.1182 5.72333 40.1182C5.72101 40.1182 5.71869 40.1182 5.71636 40.1182C5.71404 40.1182 5.71172 40.1182 5.70939 40.1182C5.70707 40.1182 5.70475 40.1182 5.70243 40.1182C5.7001 40.1182 5.69778 40.1182 5.69546 40.1182C5.69314 40.1182 5.69082 40.1182 5.6885 40.1182C5.68618 40.1182 5.68386 40.1182 5.68154 40.1182C5.67922 40.1182 5.67691 40.1182 5.67459 40.1182C5.67227 40.1182 5.66995 40.1182 5.66764 40.1182C5.66532 40.1182 5.663 40.1182 5.66069 40.1182C5.65837 40.1182 5.65605 40.1182 5.65374 40.1182C5.65142 40.1182 5.64911 40.1182 5.6468 40.1182C5.64448 40.1182 5.64217 40.1182 5.63986 40.1182C5.63754 40.1182 5.63523 40.1182 5.63292 40.1182C5.63061 40.1182 5.6283 40.1182 5.62599 40.1182C5.62368 40.1182 5.62137 40.1182 5.61906 40.1182C5.61675 40.1182 5.61444 40.1182 5.61213 40.1182C5.60982 40.1182 5.60752 40.1182 5.60521 40.1182C5.6029 40.1182 5.6006 40.1182 5.59829 40.1182C5.59599 40.1182 5.59368 40.1182 5.59138 40.1182C5.58907 40.1182 5.58677 40.1182 5.58447 40.1182C5.58216 40.1182 5.57986 40.1182 5.57756 40.1182C5.57526 40.1182 5.57296 40.1182 5.57066 40.1182C5.56836 40.1182 5.56606 40.1182 5.56376 40.1182C5.56146 40.1182 5.55916 40.1182 5.55686 40.1182C5.55457 40.1182 5.55227 40.1182 5.54997 40.1182C5.54768 40.1182 5.54538 40.1182 5.54309 40.1182C5.54079 40.1182 5.5385 40.1182 5.53621 40.1182C5.53392 40.1182 5.53162 40.1182 5.52933 40.1182C5.52704 40.1182 5.52475 40.1182 5.52246 40.1182C5.52017 40.1182 5.51788 40.1182 5.51559 40.1182C5.5133 40.1182 5.51102 40.1182 5.50873 40.1182C5.50644 40.1182 5.50416 40.1182 5.50187 40.1182C5.49959 40.1182 5.4973 40.1182 5.49502 40.1182C5.49274 40.1182 5.49045 40.1182 5.48817 40.1182C5.48589 40.1182 5.48361 40.1182 5.48133 40.1182C5.47905 40.1182 5.47677 40.1182 5.47449 40.1182C5.47222 40.1182 5.46994 40.1182 5.46766 40.1182C5.46539 40.1182 5.46311 40.1182 5.46084 40.1182C5.45856 40.1182 5.45629 40.1182 5.45402 40.1182C5.45174 40.1182 5.44947 40.1182 5.4472 40.1182C5.44493 40.1182 5.44266 40.1182 5.44039 40.1182C5.43812 40.1182 5.43585 40.1182 5.43359 40.1182C5.43132 40.1182 5.42905 40.1182 5.42679 40.1182C5.42452 40.1182 5.42226 40.1182 5.41999 40.1182C5.41773 40.1182 5.41547 40.1182 5.41321 40.1182C5.41095 40.1182 5.40869 40.1182 5.40643 40.1182C5.40417 40.1182 5.40191 40.1182 5.39965 40.1182C5.3974 40.1182 5.39514 40.1182 5.39288 40.1182C5.39063 40.1182 5.38838 40.1182 5.38612 40.1182C5.38387 40.1182 5.38162 40.1182 5.37937 40.1182C5.37712 40.1182 5.37487 40.1182 5.37262 40.1182C5.37037 40.1182 5.36812 40.1182 5.36588 40.1182C5.36363 40.1182 5.36138 40.1182 5.35914 40.1182C5.35689 40.1182 5.35465 40.1182 5.35241 40.1182C5.35017 40.1182 5.34793 40.1182 5.34569 40.1182C5.34345 40.1182 5.34121 40.1182 5.33897 40.1182C5.33673 40.1182 5.3345 40.1182 5.33226 40.1182C5.33003 40.1182 5.32779 40.1182 5.32556 40.1182C5.32333 40.1182 5.32109 40.1182 5.31886 40.1182C5.31663 40.1182 5.3144 40.1182 5.31218 40.1182C5.30995 40.1182 5.30772 40.1182 5.30549 40.1182C5.30327 40.1182 5.30104 40.1182 5.29882 40.1182C5.2966 40.1182 5.29438 40.1182 5.29215 40.1182C5.28993 40.1182 5.28771 40.1182 5.2855 40.1182C5.28328 40.1182 5.28106 40.1182 5.27884 40.1182C5.27663 40.1182 5.27441 40.1182 5.2722 40.1182C5.26999 40.1182 5.26778 40.1182 5.26557 40.1182C5.26335 40.1182 5.26115 40.1182 5.25894 40.1182C5.25673 40.1182 5.25452 40.1182 5.25232 40.1182C5.25011 40.1182 5.24791 40.1182 5.2457 40.1182C5.2435 40.1182 5.2413 40.1182 5.2391 40.1182C5.2369 40.1182 5.2347 40.1182 5.2325 40.1182C5.23031 40.1182 5.22811 40.1182 5.22592 40.1182C5.22372 40.1182 5.22153 40.1182 5.21934 40.1182C5.21714 40.1182 5.21495 40.1182 5.21276 40.1182C5.21058 40.1182 5.20839 40.1182 5.2062 40.1182C5.20402 40.1182 5.20183 40.1182 5.19965 40.1182C5.19746 40.1182 5.19528 40.1182 5.1931 40.1182C5.19092 40.1182 5.18874 40.1182 5.18656 40.1182C5.18439 40.1182 5.18221 40.1182 5.18003 40.1182C5.17786 40.1182 5.17569 40.1182 5.17352 40.1182C5.17134 40.1182 5.16917 40.1182 5.167 40.1182C5.16484 40.1182 5.16267 40.1182 5.1605 40.1182C5.15834 40.1182 5.15617 40.1182 5.15401 40.1182C5.15185 40.1182 5.14969 40.1182 5.14753 40.1182C5.14537 40.1182 5.14321 40.1182 5.14105 40.1182C5.13889 40.1182 5.13674 40.1182 5.13459 40.1182C5.13243 40.1182 5.13028 40.1182 5.12813 40.1182C5.12598 40.1182 5.12383 40.1182 5.12168 40.1182C5.11954 40.1182 5.11739 40.1182 5.11525 40.1182C5.1131 40.1182 5.11096 40.1182 5.10882 40.1182C5.10668 40.1182 5.10454 40.1182 5.1024 40.1182C5.10026 40.1182 5.09813 40.1182 5.09599 40.1182C5.09386 40.1182 5.09173 40.1182 5.0896 40.1182C5.08746 40.1182 5.08534 40.1182 5.08321 40.1182C5.08108 40.1182 5.07895 40.1182 5.07683 40.1182C5.07471 40.1182 5.07258 40.1182 5.07046 40.1182C5.06834 40.1182 5.06622 40.1182 5.0641 40.1182C5.06199 40.1182 5.05987 40.1182 5.05776 40.1182C5.05564 40.1182 5.05353 40.1182 5.05142 40.1182C5.04931 40.1182 5.0472 40.1182 5.04509 40.1182C5.04299 40.1182 5.04088 40.1182 5.03878 40.1182C5.03667 40.1182 5.03457 40.1182 5.03247 40.1182C5.03037 40.1182 5.02827 40.1182 5.02618 40.1182C5.02408 40.1182 5.02198 40.1182 5.01989 40.1182C5.0178 40.1182 5.01571 40.1182 5.01362 40.1182C5.01153 40.1182 5.00944 40.1182 5.00736 40.1182C5.00527 40.1182 5.00319 40.1182 5.0011 40.1182C4.99902 40.1182 4.99694 40.1182 4.99486 40.1182C4.99279 40.1182 4.99071 40.1182 4.98863 40.1182C4.98656 40.1182 4.98449 40.1182 4.98242 40.1182C4.98035 40.1182 4.97828 40.1182 4.97621 40.1182C4.97414 40.1182 4.97208 40.1182 4.97001 40.1182C4.96795 40.1182 4.96589 40.1182 4.96383 40.1182C4.96177 40.1182 4.95971 40.1182 4.95766 40.1182C4.9556 40.1182 4.95355 40.1182 4.9515 40.1182C4.94945 40.1182 4.9474 40.1182 4.94535 40.1182C4.9433 40.1182 4.94125 40.1182 4.93921 40.1182C4.93717 40.1182 4.93512 40.1182 4.93308 40.1182C4.93105 40.1182 4.92901 40.1182 4.92697 40.1182C4.92494 40.1182 4.9229 40.1182 4.92087 40.1182C4.91884 40.1182 4.91681 40.1182 4.91478 40.1182C4.91275 40.1182 4.91073 40.1182 4.9087 40.1182C4.90668 40.1182 4.90466 40.1182 4.90264 40.1182C4.90062 40.1182 4.8986 40.1182 4.89659 40.1182C4.89457 40.1182 4.89256 40.1182 4.89055 40.1182C4.88853 40.1182 4.88652 40.1182 4.88452 40.1182C4.88251 40.1182 4.88051 40.1182 4.8785 40.1182C4.8765 40.1182 4.8745 40.1182 4.8725 40.1182C4.8705 40.1182 4.8685 40.1182 4.86651 40.1182C4.86452 40.1182 4.86252 40.1182 4.86053 40.1182C4.85854 40.1182 4.85655 40.1182 4.85457 40.1182C4.85258 40.1182 4.8506 40.1182 4.84862 40.1182C4.84664 40.1182 4.84466 40.1182 4.84268 40.1182C4.8407 40.1182 4.83873 40.1182 4.83676 40.1182C4.83478 40.1182 4.83281 40.1182 4.83084 40.1182C4.82888 40.1182 4.82691 40.1182 4.82495 40.1182C4.82298 40.1182 4.82102 40.1182 4.81906 40.1182C4.8171 40.1182 4.81514 40.1182 4.81319 40.1182C4.81123 40.1182 4.80928 40.1182 4.80733 40.1182C4.80538 40.1182 4.80343 40.1182 4.80149 40.1182C4.79954 40.1182 4.7976 40.1182 4.79566 40.1182C4.79372 40.1182 4.79178 40.1182 4.78984 40.1182C4.7879 40.1182 4.78597 40.1182 4.78404 40.1182C4.7821 40.1182 4.78017 40.1182 4.77825 40.1182C4.77632 40.1182 4.7744 40.1182 4.77247 40.1182C4.77055 40.1182 4.76863 40.1182 4.76671 40.1182C4.76479 40.1182 4.76288 40.1182 4.76097 40.1182C4.75905 40.1182 4.75714 40.1182 4.75523 40.1182C4.75332 40.1182 4.75142 40.1182 4.74951 40.1182C4.74761 40.1182 4.74571 40.1182 4.74381 40.1182C4.74191 40.1182 4.74002 40.1182 4.73812 40.1182C4.73623 40.1182 4.73434 40.1182 4.73245 40.1182C4.73056 40.1182 4.72867 40.1182 4.72679 40.1182C4.7249 40.1182 4.72302 40.1182 4.72114 40.1182C4.71926 40.1182 4.71739 40.1182 4.71551 40.1182C4.71364 40.1182 4.71177 40.1182 4.7099 40.1182C4.70803 40.1182 4.70616 40.1182 4.7043 40.1182C4.70243 40.1182 4.70057 40.1182 4.69871 40.1182C4.69685 40.1182 4.695 40.1182 4.69314 40.1182C4.69129 40.1182 4.68944 40.1182 4.68759 40.1182C4.68574 40.1182 4.68389 40.1182 4.68205 40.1182C4.6802 40.1182 4.67836 40.1182 4.67652 40.1182C4.67468 40.1182 4.67285 40.1182 4.67101 40.1182C4.66918 40.1182 4.66735 40.1182 4.66552 40.1182C4.66369 40.1182 4.66187 40.1182 4.66004 40.1182C4.65822 40.1182 4.6564 40.1182 4.65458 40.1182C4.65276 40.1182 4.65095 40.1182 4.64913 40.1182C4.64732 40.1182 4.64551 40.1182 4.6437 40.1182C4.6419 40.1182 4.64009 40.1182 4.63829 40.1182C4.63649 40.1182 4.63469 40.1182 4.63289 40.1182C4.63109 40.1182 4.6293 40.1182 4.62751 40.1182C4.62572 40.1182 4.62393 40.1182 4.62214 40.1182C4.62036 40.1182 4.61857 40.1182 4.61679 40.1182C4.61501 40.1182 4.61324 40.1182 4.61146 40.1182C4.60969 40.1182 4.60791 40.1182 4.60614 40.1182C4.60437 40.1182 4.60261 40.1182 4.60084 40.1182C4.59908 40.1182 4.59732 40.1182 4.59556 40.1182C4.5938 40.1182 4.59205 40.1182 4.59029 40.1182C4.58854 40.1182 4.58679 40.1182 4.58504 40.1182C4.58329 40.1182 4.58155 40.1182 4.57981 40.1182C4.57807 40.1182 4.57633 40.1182 4.57459 40.1182C4.57286 40.1182 4.57112 40.1182 4.56939 40.1182C4.56766 40.1182 4.56593 40.1182 4.56421 40.1182C4.56248 40.1182 4.56076 40.1182 4.55904 40.1182C4.55733 40.1182 4.55561 40.1182 4.5539 40.1182C4.55218 40.1182 4.55047 40.1182 4.54877 40.1182C4.54706 40.1182 4.54535 40.1182 4.54365 40.1182C4.54195 40.1182 4.54025 40.1182 4.53856 40.1182C4.53686 40.1182 4.53517 40.1182 4.53348 40.1182C4.53179 40.1182 4.5301 40.1182 4.52842 40.1182C4.52673 40.1182 4.52505 40.1182 4.52337 40.1182C4.5217 40.1182 4.52002 40.1182 4.51835 40.1182C4.51668 40.1182 4.51501 40.1182 4.51334 40.1182C4.51167 40.1182 4.51001 40.1182 4.50835 40.1182C4.50669 40.1182 4.50503 40.1182 4.50338 40.1182C4.50173 40.1182 4.50007 40.1182 4.49843 40.1182C4.49678 40.1182 4.49513 40.1182 4.49349 40.1182C4.49185 40.1182 4.49021 40.1182 4.48857 40.1182C4.48694 40.1182 4.48531 40.1182 4.48368 40.1182C4.48205 40.1182 4.48042 40.1182 4.4788 40.1182C4.47717 40.1182 4.47555 40.1182 4.47393 40.1182C4.47232 40.1182 4.4707 40.1182 4.46909 40.1182C4.46748 40.1182 4.46587 40.1182 4.46427 40.1182C4.46266 40.1182 4.46106 40.1182 4.45946 40.1182C4.45786 40.1182 4.45627 40.1182 4.45467 40.1182C4.45308 40.1182 4.45149 40.1182 4.44991 40.1182C4.44832 40.1182 4.44674 40.1182 4.44516 40.1182C4.44358 40.1182 4.442 40.1182 4.44043 40.1182C4.43886 40.1182 4.43729 40.1182 4.43572 40.1182C4.43415 40.1182 4.43259 40.1182 4.43103 40.1182C4.42947 40.1182 4.42791 40.1182 4.42635 40.1182C4.4248 40.1182 4.42325 40.1182 4.4217 40.1182C4.42015 40.1182 4.41861 40.1182 4.41707 40.1182C4.41553 40.1182 4.41399 40.1182 4.41246 40.1182C4.41092 40.1182 4.40939 40.1182 4.40786 40.1182C4.40633 40.1182 4.40481 40.1182 4.40329 40.1182C4.40177 40.1182 4.40025 40.1182 4.39873 40.1182C4.39722 40.1182 4.39571 40.1182 4.3942 40.1182C4.39269 40.1182 4.39119 40.1182 4.38968 40.1182V41.6182C4.39119 41.6182 4.39269 41.6182 4.3942 41.6182C4.39571 41.6182 4.39722 41.6182 4.39873 41.6182C4.40025 41.6182 4.40177 41.6182 4.40329 41.6182C4.40481 41.6182 4.40633 41.6182 4.40786 41.6182C4.40939 41.6182 4.41092 41.6182 4.41246 41.6182C4.41399 41.6182 4.41553 41.6182 4.41707 41.6182C4.41861 41.6182 4.42015 41.6182 4.4217 41.6182C4.42325 41.6182 4.4248 41.6182 4.42635 41.6182C4.42791 41.6182 4.42947 41.6182 4.43103 41.6182C4.43259 41.6182 4.43415 41.6182 4.43572 41.6182C4.43729 41.6182 4.43886 41.6182 4.44043 41.6182C4.442 41.6182 4.44358 41.6182 4.44516 41.6182C4.44674 41.6182 4.44832 41.6182 4.44991 41.6182C4.45149 41.6182 4.45308 41.6182 4.45467 41.6182C4.45627 41.6182 4.45786 41.6182 4.45946 41.6182C4.46106 41.6182 4.46266 41.6182 4.46427 41.6182C4.46587 41.6182 4.46748 41.6182 4.46909 41.6182C4.4707 41.6182 4.47232 41.6182 4.47393 41.6182C4.47555 41.6182 4.47717 41.6182 4.4788 41.6182C4.48042 41.6182 4.48205 41.6182 4.48368 41.6182C4.48531 41.6182 4.48694 41.6182 4.48857 41.6182C4.49021 41.6182 4.49185 41.6182 4.49349 41.6182C4.49513 41.6182 4.49678 41.6182 4.49843 41.6182C4.50007 41.6182 4.50173 41.6182 4.50338 41.6182C4.50503 41.6182 4.50669 41.6182 4.50835 41.6182C4.51001 41.6182 4.51167 41.6182 4.51334 41.6182C4.51501 41.6182 4.51668 41.6182 4.51835 41.6182C4.52002 41.6182 4.5217 41.6182 4.52337 41.6182C4.52505 41.6182 4.52673 41.6182 4.52842 41.6182C4.5301 41.6182 4.53179 41.6182 4.53348 41.6182C4.53517 41.6182 4.53686 41.6182 4.53856 41.6182C4.54025 41.6182 4.54195 41.6182 4.54365 41.6182C4.54535 41.6182 4.54706 41.6182 4.54877 41.6182C4.55047 41.6182 4.55218 41.6182 4.5539 41.6182C4.55561 41.6182 4.55733 41.6182 4.55904 41.6182C4.56076 41.6182 4.56248 41.6182 4.56421 41.6182C4.56593 41.6182 4.56766 41.6182 4.56939 41.6182C4.57112 41.6182 4.57286 41.6182 4.57459 41.6182C4.57633 41.6182 4.57807 41.6182 4.57981 41.6182C4.58155 41.6182 4.58329 41.6182 4.58504 41.6182C4.58679 41.6182 4.58854 41.6182 4.59029 41.6182C4.59205 41.6182 4.5938 41.6182 4.59556 41.6182C4.59732 41.6182 4.59908 41.6182 4.60084 41.6182C4.60261 41.6182 4.60437 41.6182 4.60614 41.6182C4.60791 41.6182 4.60969 41.6182 4.61146 41.6182C4.61324 41.6182 4.61501 41.6182 4.61679 41.6182C4.61857 41.6182 4.62036 41.6182 4.62214 41.6182C4.62393 41.6182 4.62572 41.6182 4.62751 41.6182C4.6293 41.6182 4.63109 41.6182 4.63289 41.6182C4.63469 41.6182 4.63649 41.6182 4.63829 41.6182C4.64009 41.6182 4.6419 41.6182 4.6437 41.6182C4.64551 41.6182 4.64732 41.6182 4.64913 41.6182C4.65095 41.6182 4.65276 41.6182 4.65458 41.6182C4.6564 41.6182 4.65822 41.6182 4.66004 41.6182C4.66187 41.6182 4.66369 41.6182 4.66552 41.6182C4.66735 41.6182 4.66918 41.6182 4.67101 41.6182C4.67285 41.6182 4.67468 41.6182 4.67652 41.6182C4.67836 41.6182 4.6802 41.6182 4.68205 41.6182C4.68389 41.6182 4.68574 41.6182 4.68759 41.6182C4.68944 41.6182 4.69129 41.6182 4.69314 41.6182C4.695 41.6182 4.69685 41.6182 4.69871 41.6182C4.70057 41.6182 4.70243 41.6182 4.7043 41.6182C4.70616 41.6182 4.70803 41.6182 4.7099 41.6182C4.71177 41.6182 4.71364 41.6182 4.71551 41.6182C4.71739 41.6182 4.71926 41.6182 4.72114 41.6182C4.72302 41.6182 4.7249 41.6182 4.72679 41.6182C4.72867 41.6182 4.73056 41.6182 4.73245 41.6182C4.73434 41.6182 4.73623 41.6182 4.73812 41.6182C4.74002 41.6182 4.74191 41.6182 4.74381 41.6182C4.74571 41.6182 4.74761 41.6182 4.74951 41.6182C4.75142 41.6182 4.75332 41.6182 4.75523 41.6182C4.75714 41.6182 4.75905 41.6182 4.76097 41.6182C4.76288 41.6182 4.76479 41.6182 4.76671 41.6182C4.76863 41.6182 4.77055 41.6182 4.77247 41.6182C4.7744 41.6182 4.77632 41.6182 4.77825 41.6182C4.78017 41.6182 4.7821 41.6182 4.78404 41.6182C4.78597 41.6182 4.7879 41.6182 4.78984 41.6182C4.79178 41.6182 4.79372 41.6182 4.79566 41.6182C4.7976 41.6182 4.79954 41.6182 4.80149 41.6182C4.80343 41.6182 4.80538 41.6182 4.80733 41.6182C4.80928 41.6182 4.81123 41.6182 4.81319 41.6182C4.81514 41.6182 4.8171 41.6182 4.81906 41.6182C4.82102 41.6182 4.82298 41.6182 4.82495 41.6182C4.82691 41.6182 4.82888 41.6182 4.83084 41.6182C4.83281 41.6182 4.83478 41.6182 4.83676 41.6182C4.83873 41.6182 4.8407 41.6182 4.84268 41.6182C4.84466 41.6182 4.84664 41.6182 4.84862 41.6182C4.8506 41.6182 4.85258 41.6182 4.85457 41.6182C4.85655 41.6182 4.85854 41.6182 4.86053 41.6182C4.86252 41.6182 4.86452 41.6182 4.86651 41.6182C4.8685 41.6182 4.8705 41.6182 4.8725 41.6182C4.8745 41.6182 4.8765 41.6182 4.8785 41.6182C4.88051 41.6182 4.88251 41.6182 4.88452 41.6182C4.88652 41.6182 4.88853 41.6182 4.89055 41.6182C4.89256 41.6182 4.89457 41.6182 4.89659 41.6182C4.8986 41.6182 4.90062 41.6182 4.90264 41.6182C4.90466 41.6182 4.90668 41.6182 4.9087 41.6182C4.91073 41.6182 4.91275 41.6182 4.91478 41.6182C4.91681 41.6182 4.91884 41.6182 4.92087 41.6182C4.9229 41.6182 4.92494 41.6182 4.92697 41.6182C4.92901 41.6182 4.93105 41.6182 4.93308 41.6182C4.93512 41.6182 4.93717 41.6182 4.93921 41.6182C4.94125 41.6182 4.9433 41.6182 4.94535 41.6182C4.9474 41.6182 4.94945 41.6182 4.9515 41.6182C4.95355 41.6182 4.9556 41.6182 4.95766 41.6182C4.95971 41.6182 4.96177 41.6182 4.96383 41.6182C4.96589 41.6182 4.96795 41.6182 4.97001 41.6182C4.97208 41.6182 4.97414 41.6182 4.97621 41.6182C4.97828 41.6182 4.98035 41.6182 4.98242 41.6182C4.98449 41.6182 4.98656 41.6182 4.98863 41.6182C4.99071 41.6182 4.99279 41.6182 4.99486 41.6182C4.99694 41.6182 4.99902 41.6182 5.0011 41.6182C5.00319 41.6182 5.00527 41.6182 5.00736 41.6182C5.00944 41.6182 5.01153 41.6182 5.01362 41.6182C5.01571 41.6182 5.0178 41.6182 5.01989 41.6182C5.02198 41.6182 5.02408 41.6182 5.02618 41.6182C5.02827 41.6182 5.03037 41.6182 5.03247 41.6182C5.03457 41.6182 5.03667 41.6182 5.03878 41.6182C5.04088 41.6182 5.04299 41.6182 5.04509 41.6182C5.0472 41.6182 5.04931 41.6182 5.05142 41.6182C5.05353 41.6182 5.05564 41.6182 5.05776 41.6182C5.05987 41.6182 5.06199 41.6182 5.0641 41.6182C5.06622 41.6182 5.06834 41.6182 5.07046 41.6182C5.07258 41.6182 5.07471 41.6182 5.07683 41.6182C5.07895 41.6182 5.08108 41.6182 5.08321 41.6182C5.08534 41.6182 5.08746 41.6182 5.0896 41.6182C5.09173 41.6182 5.09386 41.6182 5.09599 41.6182C5.09813 41.6182 5.10026 41.6182 5.1024 41.6182C5.10454 41.6182 5.10668 41.6182 5.10882 41.6182C5.11096 41.6182 5.1131 41.6182 5.11525 41.6182C5.11739 41.6182 5.11954 41.6182 5.12168 41.6182C5.12383 41.6182 5.12598 41.6182 5.12813 41.6182C5.13028 41.6182 5.13243 41.6182 5.13459 41.6182C5.13674 41.6182 5.13889 41.6182 5.14105 41.6182C5.14321 41.6182 5.14537 41.6182 5.14753 41.6182C5.14969 41.6182 5.15185 41.6182 5.15401 41.6182C5.15617 41.6182 5.15834 41.6182 5.1605 41.6182C5.16267 41.6182 5.16484 41.6182 5.167 41.6182C5.16917 41.6182 5.17134 41.6182 5.17352 41.6182C5.17569 41.6182 5.17786 41.6182 5.18003 41.6182C5.18221 41.6182 5.18439 41.6182 5.18656 41.6182C5.18874 41.6182 5.19092 41.6182 5.1931 41.6182C5.19528 41.6182 5.19746 41.6182 5.19965 41.6182C5.20183 41.6182 5.20402 41.6182 5.2062 41.6182C5.20839 41.6182 5.21058 41.6182 5.21276 41.6182C5.21495 41.6182 5.21714 41.6182 5.21934 41.6182C5.22153 41.6182 5.22372 41.6182 5.22592 41.6182C5.22811 41.6182 5.23031 41.6182 5.2325 41.6182C5.2347 41.6182 5.2369 41.6182 5.2391 41.6182C5.2413 41.6182 5.2435 41.6182 5.2457 41.6182C5.24791 41.6182 5.25011 41.6182 5.25232 41.6182C5.25452 41.6182 5.25673 41.6182 5.25894 41.6182C5.26115 41.6182 5.26335 41.6182 5.26557 41.6182C5.26778 41.6182 5.26999 41.6182 5.2722 41.6182C5.27441 41.6182 5.27663 41.6182 5.27884 41.6182C5.28106 41.6182 5.28328 41.6182 5.2855 41.6182C5.28771 41.6182 5.28993 41.6182 5.29215 41.6182C5.29438 41.6182 5.2966 41.6182 5.29882 41.6182C5.30104 41.6182 5.30327 41.6182 5.30549 41.6182C5.30772 41.6182 5.30995 41.6182 5.31218 41.6182C5.3144 41.6182 5.31663 41.6182 5.31886 41.6182C5.32109 41.6182 5.32333 41.6182 5.32556 41.6182C5.32779 41.6182 5.33003 41.6182 5.33226 41.6182C5.3345 41.6182 5.33673 41.6182 5.33897 41.6182C5.34121 41.6182 5.34345 41.6182 5.34569 41.6182C5.34793 41.6182 5.35017 41.6182 5.35241 41.6182C5.35465 41.6182 5.35689 41.6182 5.35914 41.6182C5.36138 41.6182 5.36363 41.6182 5.36588 41.6182C5.36812 41.6182 5.37037 41.6182 5.37262 41.6182C5.37487 41.6182 5.37712 41.6182 5.37937 41.6182C5.38162 41.6182 5.38387 41.6182 5.38612 41.6182C5.38838 41.6182 5.39063 41.6182 5.39288 41.6182C5.39514 41.6182 5.3974 41.6182 5.39965 41.6182C5.40191 41.6182 5.40417 41.6182 5.40643 41.6182C5.40869 41.6182 5.41095 41.6182 5.41321 41.6182C5.41547 41.6182 5.41773 41.6182 5.41999 41.6182C5.42226 41.6182 5.42452 41.6182 5.42679 41.6182C5.42905 41.6182 5.43132 41.6182 5.43359 41.6182C5.43585 41.6182 5.43812 41.6182 5.44039 41.6182C5.44266 41.6182 5.44493 41.6182 5.4472 41.6182C5.44947 41.6182 5.45174 41.6182 5.45402 41.6182C5.45629 41.6182 5.45856 41.6182 5.46084 41.6182C5.46311 41.6182 5.46539 41.6182 5.46766 41.6182C5.46994 41.6182 5.47222 41.6182 5.47449 41.6182C5.47677 41.6182 5.47905 41.6182 5.48133 41.6182C5.48361 41.6182 5.48589 41.6182 5.48817 41.6182C5.49045 41.6182 5.49274 41.6182 5.49502 41.6182C5.4973 41.6182 5.49959 41.6182 5.50187 41.6182C5.50416 41.6182 5.50644 41.6182 5.50873 41.6182C5.51102 41.6182 5.5133 41.6182 5.51559 41.6182C5.51788 41.6182 5.52017 41.6182 5.52246 41.6182C5.52475 41.6182 5.52704 41.6182 5.52933 41.6182C5.53162 41.6182 5.53392 41.6182 5.53621 41.6182C5.5385 41.6182 5.54079 41.6182 5.54309 41.6182C5.54538 41.6182 5.54768 41.6182 5.54997 41.6182C5.55227 41.6182 5.55457 41.6182 5.55686 41.6182C5.55916 41.6182 5.56146 41.6182 5.56376 41.6182C5.56606 41.6182 5.56836 41.6182 5.57066 41.6182C5.57296 41.6182 5.57526 41.6182 5.57756 41.6182C5.57986 41.6182 5.58216 41.6182 5.58447 41.6182C5.58677 41.6182 5.58907 41.6182 5.59138 41.6182C5.59368 41.6182 5.59599 41.6182 5.59829 41.6182C5.6006 41.6182 5.6029 41.6182 5.60521 41.6182C5.60752 41.6182 5.60982 41.6182 5.61213 41.6182C5.61444 41.6182 5.61675 41.6182 5.61906 41.6182C5.62137 41.6182 5.62368 41.6182 5.62599 41.6182C5.6283 41.6182 5.63061 41.6182 5.63292 41.6182C5.63523 41.6182 5.63754 41.6182 5.63986 41.6182C5.64217 41.6182 5.64448 41.6182 5.6468 41.6182C5.64911 41.6182 5.65142 41.6182 5.65374 41.6182C5.65605 41.6182 5.65837 41.6182 5.66069 41.6182C5.663 41.6182 5.66532 41.6182 5.66764 41.6182C5.66995 41.6182 5.67227 41.6182 5.67459 41.6182C5.67691 41.6182 5.67922 41.6182 5.68154 41.6182C5.68386 41.6182 5.68618 41.6182 5.6885 41.6182C5.69082 41.6182 5.69314 41.6182 5.69546 41.6182C5.69778 41.6182 5.7001 41.6182 5.70243 41.6182C5.70475 41.6182 5.70707 41.6182 5.70939 41.6182C5.71172 41.6182 5.71404 41.6182 5.71636 41.6182C5.71869 41.6182 5.72101 41.6182 5.72333 41.6182C5.72566 41.6182 5.72798 41.6182 5.73031 41.6182C5.73263 41.6182 5.73496 41.6182 5.73728 41.6182C5.73961 41.6182 5.74194 41.6182 5.74426 41.6182C5.74659 41.6182 5.74892 41.6182 5.75124 41.6182C5.75357 41.6182 5.7559 41.6182 5.75822 41.6182C5.76055 41.6182 5.76288 41.6182 5.76521 41.6182C5.76754 41.6182 5.76987 41.6182 5.7722 41.6182C5.77453 41.6182 5.77685 41.6182 5.77918 41.6182C5.78151 41.6182 5.78384 41.6182 5.78617 41.6182C5.78851 41.6182 5.79084 41.6182 5.79317 41.6182C5.7955 41.6182 5.79783 41.6182 5.80016 41.6182C5.80249 41.6182 5.80482 41.6182 5.80716 41.6182C5.80949 41.6182 5.81182 41.6182 5.81415 41.6182C5.81648 41.6182 5.81882 41.6182 5.82115 41.6182C5.82348 41.6182 5.82581 41.6182 5.82815 41.6182C5.83048 41.6182 5.83281 41.6182 5.83515 41.6182C5.83748 41.6182 5.83982 41.6182 5.84215 41.6182C5.84448 41.6182 5.84682 41.6182 5.84915 41.6182C5.85149 41.6182 5.85382 41.6182 5.85616 41.6182C5.85849 41.6182 5.86082 41.6182 5.86316 41.6182C5.86549 41.6182 5.86783 41.6182 5.87016 41.6182C5.8725 41.6182 5.87484 41.6182 5.87717 41.6182C5.87951 41.6182 5.88184 41.6182 5.88418 41.6182C5.88651 41.6182 5.88885 41.6182 5.89118 41.6182C5.89352 41.6182 5.89585 41.6182 5.89819 41.6182C5.90053 41.6182 5.90286 41.6182 5.9052 41.6182C5.90753 41.6182 5.90987 41.6182 5.91221 41.6182C5.91454 41.6182 5.91688 41.6182 5.91922 41.6182C5.92155 41.6182 5.92389 41.6182 5.92622 41.6182C5.92856 41.6182 5.9309 41.6182 5.93323 41.6182C5.93557 41.6182 5.9379 41.6182 5.94024 41.6182C5.94258 41.6182 5.94491 41.6182 5.94725 41.6182C5.94959 41.6182 5.95192 41.6182 5.95426 41.6182C5.95659 41.6182 5.95893 41.6182 5.96127 41.6182C5.9636 41.6182 5.96594 41.6182 5.96827 41.6182C5.97061 41.6182 5.97294 41.6182 5.97528 41.6182C5.97762 41.6182 5.97995 41.6182 5.98229 41.6182C5.98462 41.6182 5.98696 41.6182 5.98929 41.6182C5.99163 41.6182 5.99396 41.6182 5.9963 41.6182C5.99863 41.6182 6.00097 41.6182 6.0033 41.6182C6.00564 41.6182 6.00797 41.6182 6.01031 41.6182C6.01264 41.6182 6.01498 41.6182 6.01731 41.6182C6.01965 41.6182 6.02198 41.6182 6.02431 41.6182C6.02665 41.6182 6.02898 41.6182 6.03131 41.6182C6.03365 41.6182 6.03598 41.6182 6.03831 41.6182C6.04065 41.6182 6.04298 41.6182 6.04531 41.6182C6.04765 41.6182 6.04998 41.6182 6.05231 41.6182C6.05464 41.6182 6.05697 41.6182 6.05931 41.6182C6.06164 41.6182 6.06397 41.6182 6.0663 41.6182C6.06863 41.6182 6.07096 41.6182 6.07329 41.6182C6.07563 41.6182 6.07796 41.6182 6.08029 41.6182C6.08262 41.6182 6.08495 41.6182 6.08728 41.6182C6.08961 41.6182 6.09194 41.6182 6.09426 41.6182C6.09659 41.6182 6.09892 41.6182 6.10125 41.6182C6.10358 41.6182 6.10591 41.6182 6.10823 41.6182C6.11056 41.6182 6.11289 41.6182 6.11522 41.6182C6.11754 41.6182 6.11987 41.6182 6.1222 41.6182C6.12452 41.6182 6.12685 41.6182 6.12918 41.6182C6.1315 41.6182 6.13383 41.6182 6.13615 41.6182C6.13848 41.6182 6.1408 41.6182 6.14312 41.6182C6.14545 41.6182 6.14777 41.6182 6.15009 41.6182C6.15242 41.6182 6.15474 41.6182 6.15706 41.6182C6.15939 41.6182 6.16171 41.6182 6.16403 41.6182C6.16635 41.6182 6.16867 41.6182 6.17099 41.6182C6.17331 41.6182 6.17563 41.6182 6.17795 41.6182C6.18027 41.6182 6.18259 41.6182 6.18491 41.6182C6.18723 41.6182 6.18955 41.6182 6.19187 41.6182C6.19418 41.6182 6.1965 41.6182 6.19882 41.6182C6.20113 41.6182 6.20345 41.6182 6.20577 41.6182C6.20808 41.6182 6.2104 41.6182 6.21271 41.6182C6.21503 41.6182 6.21734 41.6182 6.21966 41.6182C6.22197 41.6182 6.22428 41.6182 6.22659 41.6182C6.22891 41.6182 6.23122 41.6182 6.23353 41.6182C6.23584 41.6182 6.23815 41.6182 6.24046 41.6182C6.24277 41.6182 6.24508 41.6182 6.24739 41.6182C6.2497 41.6182 6.25201 41.6182 6.25432 41.6182C6.25662 41.6182 6.25893 41.6182 6.26124 41.6182C6.26354 41.6182 6.26585 41.6182 6.26816 41.6182C6.27046 41.6182 6.27277 41.6182 6.27507 41.6182C6.27737 41.6182 6.27968 41.6182 6.28198 41.6182C6.28428 41.6182 6.28658 41.6182 6.28889 41.6182C6.29119 41.6182 6.29349 41.6182 6.29579 41.6182C6.29809 41.6182 6.30039 41.6182 6.30268 41.6182C6.30498 41.6182 6.30728 41.6182 6.30958 41.6182C6.31187 41.6182 6.31417 41.6182 6.31647 41.6182C6.31876 41.6182 6.32106 41.6182 6.32335 41.6182C6.32565 41.6182 6.32794 41.6182 6.33023 41.6182C6.33252 41.6182 6.33482 41.6182 6.33711 41.6182C6.3394 41.6182 6.34169 41.6182 6.34398 41.6182C6.34627 41.6182 6.34856 41.6182 6.35084 41.6182C6.35313 41.6182 6.35542 41.6182 6.35771 41.6182C6.35999 41.6182 6.36228 41.6182 6.36456 41.6182C6.36685 41.6182 6.36913 41.6182 6.37141 41.6182C6.3737 41.6182 6.37598 41.6182 6.37826 41.6182C6.38054 41.6182 6.38282 41.6182 6.3851 41.6182C6.38738 41.6182 6.38966 41.6182 6.39194 41.6182C6.39421 41.6182 6.39649 41.6182 6.39877 41.6182C6.40104 41.6182 6.40332 41.6182 6.40559 41.6182C6.40787 41.6182 6.41014 41.6182 6.41241 41.6182C6.41469 41.6182 6.41696 41.6182 6.41923 41.6182C6.4215 41.6182 6.42377 41.6182 6.42604 41.6182C6.4283 41.6182 6.43057 41.6182 6.43284 41.6182C6.43511 41.6182 6.43737 41.6182 6.43964 41.6182C6.4419 41.6182 6.44416 41.6182 6.44643 41.6182C6.44869 41.6182 6.45095 41.6182 6.45321 41.6182C6.45547 41.6182 6.45773 41.6182 6.45999 41.6182C6.46225 41.6182 6.46451 41.6182 6.46677 41.6182C6.46902 41.6182 6.47128 41.6182 6.47353 41.6182C6.47579 41.6182 6.47804 41.6182 6.48029 41.6182C6.48255 41.6182 6.4848 41.6182 6.48705 41.6182C6.4893 41.6182 6.49155 41.6182 6.4938 41.6182C6.49604 41.6182 6.49829 41.6182 6.50054 41.6182C6.50278 41.6182 6.50503 41.6182 6.50727 41.6182C6.50952 41.6182 6.51176 41.6182 6.514 41.6182C6.51624 41.6182 6.51848 41.6182 6.52072 41.6182C6.52296 41.6182 6.5252 41.6182 6.52744 41.6182C6.52968 41.6182 6.53191 41.6182 6.53415 41.6182C6.53638 41.6182 6.53861 41.6182 6.54085 41.6182C6.54308 41.6182 6.54531 41.6182 6.54754 41.6182C6.54977 41.6182 6.552 41.6182 6.55423 41.6182C6.55645 41.6182 6.55868 41.6182 6.56091 41.6182C6.56313 41.6182 6.56536 41.6182 6.56758 41.6182C6.5698 41.6182 6.57202 41.6182 6.57424 41.6182C6.57646 41.6182 6.57868 41.6182 6.5809 41.6182C6.58312 41.6182 6.58534 41.6182 6.58755 41.6182C6.58977 41.6182 6.59198 41.6182 6.59419 41.6182C6.59641 41.6182 6.59862 41.6182 6.60083 41.6182C6.60304 41.6182 6.60525 41.6182 6.60745 41.6182C6.60966 41.6182 6.61187 41.6182 6.61407 41.6182C6.61628 41.6182 6.61848 41.6182 6.62068 41.6182C6.62289 41.6182 6.62509 41.6182 6.62729 41.6182C6.62949 41.6182 6.63168 41.6182 6.63388 41.6182C6.63608 41.6182 6.63827 41.6182 6.64047 41.6182C6.64266 41.6182 6.64485 41.6182 6.64705 41.6182C6.64924 41.6182 6.65143 41.6182 6.65362 41.6182C6.6558 41.6182 6.65799 41.6182 6.66018 41.6182C6.66236 41.6182 6.66455 41.6182 6.66673 41.6182C6.66891 41.6182 6.67109 41.6182 6.67327 41.6182C6.67545 41.6182 6.67763 41.6182 6.67981 41.6182C6.68199 41.6182 6.68416 41.6182 6.68634 41.6182C6.68851 41.6182 6.69068 41.6182 6.69286 41.6182C6.69503 41.6182 6.6972 41.6182 6.69936 41.6182C6.70153 41.6182 6.7037 41.6182 6.70586 41.6182C6.70803 41.6182 6.71019 41.6182 6.71236 41.6182C6.71452 41.6182 6.71668 41.6182 6.71884 41.6182C6.721 41.6182 6.72315 41.6182 6.72531 41.6182C6.72747 41.6182 6.72962 41.6182 6.73177 41.6182C6.73393 41.6182 6.73608 41.6182 6.73823 41.6182C6.74038 41.6182 6.74253 41.6182 6.74467 41.6182C6.74682 41.6182 6.74896 41.6182 6.75111 41.6182C6.75325 41.6182 6.75539 41.6182 6.75753 41.6182C6.75967 41.6182 6.76181 41.6182 6.76395 41.6182C6.76609 41.6182 6.76822 41.6182 6.77035 41.6182C6.77249 41.6182 6.77462 41.6182 6.77675 41.6182C6.77888 41.6182 6.78101 41.6182 6.78314 41.6182C6.78526 41.6182 6.78739 41.6182 6.78951 41.6182C6.79164 41.6182 6.79376 41.6182 6.79588 41.6182C6.798 41.6182 6.80012 41.6182 6.80224 41.6182C6.80435 41.6182 6.80647 41.6182 6.80858 41.6182C6.81069 41.6182 6.81281 41.6182 6.81492 41.6182C6.81703 41.6182 6.81913 41.6182 6.82124 41.6182C6.82335 41.6182 6.82545 41.6182 6.82755 41.6182C6.82966 41.6182 6.83176 41.6182 6.83386 41.6182C6.83596 41.6182 6.83806 41.6182 6.84015 41.6182C6.84225 41.6182 6.84434 41.6182 6.84643 41.6182C6.84853 41.6182 6.85062 41.6182 6.8527 41.6182C6.85479 41.6182 6.85688 41.6182 6.85896 41.6182C6.86105 41.6182 6.86313 41.6182 6.86521 41.6182C6.8673 41.6182 6.86938 41.6182 6.87145 41.6182C6.87353 41.6182 6.87561 41.6182 6.87768 41.6182C6.87975 41.6182 6.88183 41.6182 6.8839 41.6182C6.88597 41.6182 6.88803 41.6182 6.8901 41.6182C6.89217 41.6182 6.89423 41.6182 6.89629 41.6182C6.89836 41.6182 6.90042 41.6182 6.90248 41.6182C6.90453 41.6182 6.90659 41.6182 6.90865 41.6182C6.9107 41.6182 6.91275 41.6182 6.9148 41.6182C6.91686 41.6182 6.9189 41.6182 6.92095 41.6182C6.923 41.6182 6.92504 41.6182 6.92709 41.6182C6.92913 41.6182 6.93117 41.6182 6.93321 41.6182C6.93525 41.6182 6.93729 41.6182 6.93932 41.6182C6.94136 41.6182 6.94339 41.6182 6.94542 41.6182C6.94745 41.6182 6.94948 41.6182 6.95151 41.6182C6.95353 41.6182 6.95556 41.6182 6.95758 41.6182C6.95961 41.6182 6.96163 41.6182 6.96364 41.6182C6.96566 41.6182 6.96768 41.6182 6.9697 41.6182C6.97171 41.6182 6.97372 41.6182 6.97573 41.6182C6.97774 41.6182 6.97975 41.6182 6.98176 41.6182C6.98377 41.6182 6.98577 41.6182 6.98777 41.6182C6.98977 41.6182 6.99177 41.6182 6.99377 41.6182C6.99577 41.6182 6.99777 41.6182 6.99976 41.6182C7.00175 41.6182 7.00374 41.6182 7.00573 41.6182C7.00772 41.6182 7.00971 41.6182 7.01169 41.6182C7.01368 41.6182 7.01566 41.6182 7.01764 41.6182C7.01962 41.6182 7.0216 41.6182 7.02358 41.6182C7.02556 41.6182 7.02753 41.6182 7.0295 41.6182C7.03147 41.6182 7.03344 41.6182 7.03541 41.6182C7.03738 41.6182 7.03934 41.6182 7.04131 41.6182C7.04327 41.6182 7.04523 41.6182 7.04719 41.6182C7.04915 41.6182 7.0511 41.6182 7.05306 41.6182C7.05501 41.6182 7.05696 41.6182 7.05891 41.6182C7.06086 41.6182 7.06281 41.6182 7.06475 41.6182C7.0667 41.6182 7.06864 41.6182 7.07058 41.6182C7.07252 41.6182 7.07446 41.6182 7.0764 41.6182C7.07833 41.6182 7.08027 41.6182 7.0822 41.6182C7.08413 41.6182 7.08606 41.6182 7.08798 41.6182C7.08991 41.6182 7.09183 41.6182 7.09376 41.6182C7.09568 41.6182 7.0976 41.6182 7.09951 41.6182C7.10143 41.6182 7.10334 41.6182 7.10526 41.6182C7.10717 41.6182 7.10908 41.6182 7.11099 41.6182C7.11289 41.6182 7.1148 41.6182 7.1167 41.6182C7.1186 41.6182 7.12051 41.6182 7.1224 41.6182C7.1243 41.6182 7.1262 41.6182 7.12809 41.6182C7.12998 41.6182 7.13187 41.6182 7.13376 41.6182C7.13565 41.6182 7.13754 41.6182 7.13942 41.6182C7.1413 41.6182 7.14318 41.6182 7.14506 41.6182C7.14694 41.6182 7.14881 41.6182 7.15069 41.6182C7.15256 41.6182 7.15443 41.6182 7.1563 41.6182C7.15817 41.6182 7.16003 41.6182 7.1619 41.6182C7.16376 41.6182 7.16562 41.6182 7.16748 41.6182C7.16934 41.6182 7.17119 41.6182 7.17305 41.6182C7.1749 41.6182 7.17675 41.6182 7.1786 41.6182C7.18045 41.6182 7.18229 41.6182 7.18414 41.6182C7.18598 41.6182 7.18782 41.6182 7.18966 41.6182C7.1915 41.6182 7.19333 41.6182 7.19516 41.6182C7.197 41.6182 7.19883 41.6182 7.20065 41.6182C7.20248 41.6182 7.20431 41.6182 7.20613 41.6182C7.20795 41.6182 7.20977 41.6182 7.21159 41.6182C7.2134 41.6182 7.21522 41.6182 7.21703 41.6182C7.21884 41.6182 7.22065 41.6182 7.22246 41.6182C7.22426 41.6182 7.22607 41.6182 7.22787 41.6182C7.22967 41.6182 7.23147 41.6182 7.23326 41.6182C7.23506 41.6182 7.23685 41.6182 7.23864 41.6182C7.24043 41.6182 7.24222 41.6182 7.24401 41.6182C7.24579 41.6182 7.24757 41.6182 7.24935 41.6182C7.25113 41.6182 7.25291 41.6182 7.25468 41.6182C7.25646 41.6182 7.25823 41.6182 7.26 41.6182C7.26177 41.6182 7.26353 41.6182 7.26529 41.6182C7.26706 41.6182 7.26882 41.6182 7.27057 41.6182C7.27233 41.6182 7.27409 41.6182 7.27584 41.6182C7.27759 41.6182 7.27934 41.6182 7.28109 41.6182C7.28283 41.6182 7.28458 41.6182 7.28632 41.6182C7.28806 41.6182 7.28979 41.6182 7.29153 41.6182C7.29326 41.6182 7.295 41.6182 7.29673 41.6182C7.29845 41.6182 7.30018 41.6182 7.30191 41.6182C7.30363 41.6182 7.30535 41.6182 7.30707 41.6182C7.30878 41.6182 7.3105 41.6182 7.31221 41.6182C7.31392 41.6182 7.31563 41.6182 7.31734 41.6182C7.31905 41.6182 7.32075 41.6182 7.32245 41.6182C7.32415 41.6182 7.32585 41.6182 7.32754 41.6182C7.32924 41.6182 7.33093 41.6182 7.33262 41.6182C7.33431 41.6182 7.33599 41.6182 7.33768 41.6182C7.33936 41.6182 7.34104 41.6182 7.34271 41.6182C7.34439 41.6182 7.34607 41.6182 7.34774 41.6182C7.34941 41.6182 7.35108 41.6182 7.35274 41.6182C7.35441 41.6182 7.35607 41.6182 7.35773 41.6182C7.35939 41.6182 7.36104 41.6182 7.36269 41.6182C7.36435 41.6182 7.366 41.6182 7.36764 41.6182C7.36929 41.6182 7.37094 41.6182 7.37258 41.6182C7.37422 41.6182 7.37585 41.6182 7.37749 41.6182C7.37912 41.6182 7.38076 41.6182 7.38238 41.6182C7.38401 41.6182 7.38564 41.6182 7.38726 41.6182C7.38888 41.6182 7.3905 41.6182 7.39212 41.6182C7.39374 41.6182 7.39535 41.6182 7.39696 41.6182C7.39857 41.6182 7.40018 41.6182 7.40178 41.6182C7.40338 41.6182 7.40498 41.6182 7.40658 41.6182C7.40818 41.6182 7.40977 41.6182 7.41136 41.6182C7.41296 41.6182 7.41454 41.6182 7.41613 41.6182C7.41771 41.6182 7.41929 41.6182 7.42087 41.6182C7.42245 41.6182 7.42403 41.6182 7.4256 41.6182C7.42717 41.6182 7.42874 41.6182 7.43031 41.6182C7.43187 41.6182 7.43343 41.6182 7.43499 41.6182C7.43655 41.6182 7.43811 41.6182 7.43966 41.6182C7.44122 41.6182 7.44276 41.6182 7.44431 41.6182C7.44586 41.6182 7.4474 41.6182 7.44894 41.6182C7.45048 41.6182 7.45202 41.6182 7.45355 41.6182C7.45508 41.6182 7.45661 41.6182 7.45814 41.6182C7.45967 41.6182 7.46119 41.6182 7.46271 41.6182C7.46423 41.6182 7.46575 41.6182 7.46726 41.6182C7.46877 41.6182 7.47028 41.6182 7.47179 41.6182C7.4733 41.6182 7.4748 41.6182 7.4763 41.6182C7.4778 41.6182 7.4793 41.6182 7.48079 41.6182C7.48229 41.6182 7.48378 41.6182 7.48526 41.6182C7.48675 41.6182 7.48823 41.6182 7.48971 41.6182C7.49119 41.6182 7.49267 41.6182 7.49414 41.6182C7.49562 41.6182 7.49709 41.6182 7.49855 41.6182C7.50002 41.6182 7.50148 41.6182 7.50294 41.6182C7.5044 41.6182 7.50586 41.6182 7.50731 41.6182C7.50876 41.6182 7.51021 41.6182 7.51166 41.6182C7.51311 41.6182 7.51455 41.6182 7.51599 41.6182C7.51743 41.6182 7.51886 41.6182 7.52029 41.6182C7.52173 41.6182 7.52315 41.6182 7.52458 41.6182C7.526 41.6182 7.52743 41.6182 7.52884 41.6182V40.1182ZM4.38968 40.1182C4.07792 40.1182 3.59455 39.9767 3.19653 39.6743C2.81552 39.3849 2.57715 39.0022 2.57715 38.5262H1.07715C1.07715 39.5817 1.63264 40.37 2.2892 40.8688C2.92875 41.3546 3.72664 41.6182 4.38968 41.6182V40.1182ZM2.57715 17.6708C2.57715 17.4552 2.6958 17.0969 2.95781 16.787C3.21029 16.4885 3.51907 16.3229 3.83801 16.3229V14.8229C2.96374 14.8229 2.26709 15.2808 1.81244 15.8185C1.36733 16.3448 1.07715 17.0355 1.07715 17.6708H2.57715ZM3.83801 16.3229C5.03122 16.3229 36.4723 16.3229 52.0436 16.3229V14.8229C36.4723 14.8229 5.03122 14.8229 3.83801 14.8229V16.3229ZM52.0436 16.3229C52.2029 16.3229 52.5936 16.423 52.9453 16.6669C53.2873 16.904 53.4414 17.1663 53.4414 17.4224H54.9414C54.9414 16.4861 54.3618 15.8237 53.8 15.4342C53.2479 15.0514 52.5647 14.8229 52.0436 14.8229V16.3229ZM53.5206 39.4C53.3732 39.6947 52.8364 40.3253 52.0137 40.3582L52.0736 41.857C53.6372 41.7945 54.5721 40.6511 54.8622 40.0708L53.5206 39.4ZM52.0137 40.3582C50.8468 40.4049 49.1373 40.3777 48.4252 40.3579L48.3835 41.8573C49.1032 41.8773 50.8541 41.9058 52.0736 41.857L52.0137 40.3582ZM53.4414 17.4224C53.4414 17.7267 53.4609 18.9606 53.4646 20.5862L54.9646 20.5828C54.9608 18.8726 54.9414 17.7764 54.9414 17.4224H53.4414ZM6.58239 19.8345C6.18131 19.8345 5.75178 19.9124 5.39105 20.1451C5.00165 20.3964 4.74703 20.7959 4.70192 21.2921L6.19576 21.4279C6.19818 21.4013 6.20316 21.3993 6.1979 21.4079C6.19288 21.4162 6.19041 21.4145 6.20422 21.4056C6.24109 21.3818 6.35446 21.3345 6.58239 21.3345V19.8345ZM4.70192 21.2921C4.67393 21.6 4.67007 23.0311 4.67349 24.6161C4.67697 26.2329 4.68892 28.087 4.69887 29.301L6.19882 29.2887C6.18888 28.0765 6.17696 26.2257 6.17348 24.6129C6.16994 22.9682 6.17603 21.645 6.19576 21.4279L4.70192 21.2921ZM4.69887 29.301C4.70405 29.9335 5.04806 30.3637 5.44717 30.6079C5.8091 30.8294 6.22028 30.9073 6.50776 30.936L6.65702 29.4435C6.57003 29.4348 6.48285 29.4199 6.40395 29.3982C6.3237 29.376 6.26656 29.3508 6.23009 29.3285C6.19528 29.3072 6.19196 29.2965 6.19688 29.3044C6.20485 29.3171 6.19907 29.3197 6.19882 29.2887L4.69887 29.301ZM28.8017 20.5845V35.1988H30.3017V20.5845H28.8017ZM28.8119 35.3221C28.802 35.2633 28.8285 35.644 29.0045 35.9483C29.1063 36.1244 29.2625 36.3002 29.4912 36.4272C29.7173 36.5526 29.9731 36.6075 30.2421 36.6075V35.1075C30.2088 35.1075 30.1936 35.1041 30.1922 35.1038C30.1913 35.1036 30.2019 35.106 30.219 35.1155C30.2362 35.1251 30.2541 35.1385 30.2702 35.1549C30.2859 35.1709 30.2965 35.1861 30.303 35.1975C30.3093 35.2084 30.3117 35.2153 30.312 35.2161C30.3122 35.2167 30.3111 35.2135 30.3094 35.2051C30.3077 35.1966 30.306 35.1858 30.3038 35.1683C30.3033 35.1639 30.3027 35.1593 30.3021 35.1539C30.3015 35.1493 30.3006 35.1419 30.2999 35.1357C30.2991 35.1291 30.298 35.1205 30.2968 35.1112C30.2956 35.1021 30.2938 35.0896 30.2914 35.0755L28.8119 35.3221ZM30.2421 36.6075C30.9103 36.6075 35.2863 36.6075 37.454 36.6075V35.1075C35.2863 35.1075 30.9103 35.1075 30.2421 35.1075V36.6075ZM37.454 36.6075C37.7474 36.6075 38.1097 36.5053 38.3964 36.2166C38.6973 35.9136 38.8294 35.4925 38.8085 35.0235L37.31 35.0901C37.3134 35.1673 37.3029 35.1995 37.3023 35.2013C37.302 35.2022 37.3036 35.1973 37.3089 35.1887C37.3142 35.18 37.3218 35.1699 37.332 35.1597C37.3529 35.1386 37.3761 35.1252 37.396 35.1177C37.414 35.1109 37.4325 35.1075 37.454 35.1075V36.6075ZM38.0593 19.8345H29.5517V21.3345H38.0593V19.8345ZM38.8085 35.0235C38.7972 34.7688 38.7934 32.7696 38.7943 30.19L37.2943 30.1895C37.2934 32.736 37.2967 34.7911 37.31 35.0901L38.8085 35.0235ZM38.7943 30.19C38.7953 27.0486 38.803 23.1016 38.8093 20.5864L37.3093 20.5826C37.303 23.0984 37.2953 27.0466 37.2943 30.1895L38.7943 30.19ZM53.4646 20.5862C53.4701 23.0481 53.4679 26.6069 53.4624 30.1886L54.9624 30.1909C54.9679 26.609 54.9701 23.0478 54.9646 20.5828L53.4646 20.5862ZM54.2146 19.8345H46.1369V21.3345H54.2146V19.8345ZM46.1369 19.8345H38.0593V21.3345H46.1369V19.8345ZM38.0443 30.9397H46.1283V29.4397H38.0443V30.9397ZM46.1283 30.9397H54.2124V29.4397H46.1283V30.9397ZM45.3869 20.5838L45.3783 30.1891L46.8783 30.1904L46.8869 20.5852L45.3869 20.5838ZM29.5517 19.8345H21.4378V21.3345H29.5517V19.8345ZM21.4391 30.9574C24.4266 30.9523 27.3276 30.9457 29.5537 30.9397L29.5497 29.4397C27.3241 29.4457 24.4235 29.4523 21.4365 29.4575L21.4391 30.9574ZM20.6878 20.5845V30.2075H22.1878V20.5845H20.6878ZM21.4378 19.8345H13.4461V21.3345H21.4378V19.8345ZM13.4461 19.8345H6.58239V21.3345H13.4461V19.8345ZM6.50776 30.936C6.60231 30.9455 6.86857 30.9493 7.19988 30.9525C7.5588 30.956 8.05645 30.9587 8.66494 30.9608C9.88229 30.9649 11.5483 30.9664 13.4462 30.966L13.4459 29.466C11.5485 29.4664 9.88464 29.4649 8.67001 29.4608C8.0625 29.4588 7.56861 29.456 7.2145 29.4526C7.03721 29.4509 6.89679 29.449 6.79541 29.4469C6.67765 29.4445 6.64582 29.4423 6.65702 29.4435L6.50776 30.936ZM13.4462 30.966C15.8798 30.9656 18.696 30.9622 21.4391 30.9574L21.4365 29.4575C18.6939 29.4622 15.8785 29.4656 13.4459 29.466L13.4462 30.966ZM12.6961 20.5845V30.216H14.1961V20.5845H12.6961ZM44.501 33.7525H46.6727V32.2525H44.501V33.7525ZM53.4624 30.1886C53.461 31.1311 53.4593 32.0751 53.4575 33.001L54.9575 33.0039C54.9593 32.0778 54.961 31.1336 54.9624 30.1909L53.4624 30.1886ZM54.2075 32.2525H51.7989V33.7525H54.2075V32.2525ZM50.0489 34.0025V34.8575H51.5489V34.0025H50.0489ZM53.4575 33.001C53.4556 33.9806 53.4536 34.9399 53.4514 35.8557L54.9514 35.8592C54.9536 34.9432 54.9556 33.9837 54.9575 33.0039L53.4575 33.001ZM53.4514 35.8557C53.4481 37.283 53.4447 38.6047 53.4414 39.7332L54.9414 39.7376C54.9447 38.6087 54.9481 37.2867 54.9514 35.8592L53.4514 35.8557ZM51.7989 36.6075H54.2014V35.1075H51.7989V36.6075ZM2.57715 32.7419V17.6708H1.07715V32.7419H2.57715ZM1.82715 33.4919H3.38968V31.9919H1.82715V33.4919ZM3.63968 33.7419V34.8575H5.13968V33.7419H3.63968ZM2.57715 38.5262V35.8575H1.07715V38.5262H2.57715ZM2.57715 35.8575V32.7419H1.07715V35.8575H2.57715ZM3.38968 35.1075H1.82715V36.6075H3.38968V35.1075ZM3.38968 33.4919C3.52776 33.4919 3.63968 33.6038 3.63968 33.7419H5.13968C5.13968 32.7754 4.35618 31.9919 3.38968 31.9919V33.4919ZM50.0489 34.8575C50.0489 35.824 50.8324 36.6075 51.7989 36.6075V35.1075C51.6608 35.1075 51.5489 34.9956 51.5489 34.8575H50.0489ZM3.63968 34.8575C3.63968 34.9956 3.52775 35.1075 3.38968 35.1075V36.6075C4.35618 36.6075 5.13968 35.824 5.13968 34.8575H3.63968ZM51.7989 32.2525C50.8324 32.2525 50.0489 33.036 50.0489 34.0025H51.5489C51.5489 33.8644 51.6608 33.7525 51.7989 33.7525V32.2525Z" fill="#FFD12F"/>
</svg>
