<svg width="56" height="57" viewBox="0 0 56 57" fill="none" xmlns="http://www.w3.org/2000/svg">
<path d="M23.6401 46.3675C26.3209 46.3675 28.4941 44.1943 28.4941 41.5135C28.4941 38.8327 26.3209 36.6595 23.6401 36.6595C20.9593 36.6595 18.7861 38.8327 18.7861 41.5135C18.7861 44.1943 20.9593 46.3675 23.6401 46.3675Z" stroke="#FFD12F" stroke-width="2"/>
<path d="M8.18918 40.3252V39.3252H8.17699L8.1648 39.3255L8.18918 40.3252ZM4.21915 30.2194L3.23369 30.0495L3.22349 30.1087L3.22044 30.1686L4.21915 30.2194ZM39.6797 27.5125L39.6768 28.5125H39.6797V27.5125ZM43.1084 37.3404L44.0927 37.5171L44.107 37.4375L44.1083 37.3566L43.1084 37.3404ZM54.2067 41.3252C54.759 41.3252 55.2067 40.8775 55.2067 40.3252C55.2067 39.7729 54.759 39.3252 54.2067 39.3252V41.3252ZM9.81342 34.1047C10.3657 34.1047 10.8135 33.657 10.8135 33.1047C10.8135 32.5524 10.3657 32.1047 9.81342 32.1047V34.1047ZM19.1072 39.3252H8.18918V41.3252H19.1072V39.3252ZM8.1648 39.3255C7.75266 39.3356 6.99412 39.1717 6.32339 38.784C5.65558 38.398 5.27225 37.9126 5.21303 37.3796L3.22527 37.6004C3.3826 39.0164 4.36774 39.9637 5.32253 40.5155C6.27439 41.0657 7.3926 41.3449 8.21357 41.3249L8.1648 39.3255ZM5.20461 30.3893C5.2449 30.1556 5.45253 29.6433 5.84247 29.196C6.22095 28.7618 6.65857 28.5125 7.13085 28.5125V26.5125C5.88918 26.5125 4.94615 27.1806 4.33487 27.8818C3.73504 28.5699 3.34378 29.411 3.23369 30.0495L5.20461 30.3893ZM7.13085 28.5125C8.79626 28.5125 29.3923 28.4824 39.6768 28.5125L39.6826 26.5125C29.3945 26.4824 8.78905 26.5125 7.13085 26.5125V28.5125ZM39.6797 28.5125C40.0682 28.5125 40.7113 28.7164 41.2759 29.1178C41.854 29.5288 42.0967 29.9591 42.1093 30.2611L44.1076 30.1778C44.0576 28.9779 43.2323 28.0548 42.4348 27.4878C41.6238 26.9112 40.5838 26.5125 39.6797 26.5125V28.5125ZM42.1093 30.2611C42.18 31.9584 42.1388 35.4501 42.1086 37.3243L44.1083 37.3566C44.1382 35.5013 44.1812 31.9453 44.1076 30.1778L42.1093 30.2611ZM42.1242 37.1638C42.0192 37.7487 41.8106 38.2882 41.459 38.6703C41.1375 39.0199 40.6183 39.3252 39.6797 39.3252V41.3252C41.1231 41.3252 42.1952 40.8242 42.931 40.0244C43.6367 39.2572 43.9514 38.3043 44.0927 37.5171L42.1242 37.1638ZM28.5814 41.3252H54.2067V39.3252H28.5814V41.3252ZM5.21303 37.3796C5.08981 36.2706 5.0824 34.8711 5.11864 33.1255L3.11907 33.0839C3.08281 34.8307 3.08605 36.3475 3.22527 37.6004L5.21303 37.3796ZM5.11864 33.1255C5.14201 32.0001 5.1828 30.9597 5.21786 30.2702L3.22044 30.1686C3.18439 30.8777 3.14286 31.9382 3.11907 33.0839L5.11864 33.1255ZM4.11886 34.1047H9.81342V32.1047H4.11886V34.1047Z" fill="#FFD12F"/>
</svg>
